<?xml version="1.0" encoding="UTF-8" standalone="no"?>
<!-- Created with Inkscape (http://www.inkscape.org/) -->

<svg
   xmlns:dc="http://purl.org/dc/elements/1.1/"
   xmlns:cc="http://creativecommons.org/ns#"
   xmlns:rdf="http://www.w3.org/1999/02/22-rdf-syntax-ns#"
   xmlns:svg="http://www.w3.org/2000/svg"
   xmlns="http://www.w3.org/2000/svg"
   xmlns:sodipodi="http://sodipodi.sourceforge.net/DTD/sodipodi-0.dtd"
   xmlns:inkscape="http://www.inkscape.org/namespaces/inkscape"
   version="1.1"
   id="svg402"
   width="447.76993"
   height="502.76904"
   viewBox="0 0 447.76993 502.76904"
   sodipodi:docname="icon.svg"
   inkscape:version="0.92.3 (2405546, 2018-03-11)">
  <metadata
     id="metadata408">
    <rdf:RDF>
      <cc:Work
         rdf:about="">
        <dc:format>image/svg+xml</dc:format>
        <dc:type
           rdf:resource="http://purl.org/dc/dcmitype/StillImage" />
        <dc:title></dc:title>
      </cc:Work>
    </rdf:RDF>
  </metadata>
  <defs
     id="defs406" />
  <sodipodi:namedview
     pagecolor="#ffffff"
     bordercolor="#666666"
     borderopacity="1"
     objecttolerance="10"
     gridtolerance="10"
     guidetolerance="10"
     inkscape:pageopacity="0"
     inkscape:pageshadow="2"
     inkscape:window-width="1680"
     inkscape:window-height="988"
     id="namedview404"
     showgrid="false"
     inkscape:zoom="1.0439365"
     inkscape:cx="44.282705"
     inkscape:cy="251.86852"
     inkscape:window-x="-8"
     inkscape:window-y="-8"
     inkscape:window-maximized="1"
     inkscape:current-layer="g1321"
     fit-margin-top="50"
     fit-margin-left="50"
     fit-margin-right="50"
     fit-margin-bottom="50" />
  <g
     inkscape:groupmode="layer"
     id="g1321"
     inkscape:label="Icon gelb"
     style="display:inline"
     transform="translate(-146.37436,-129.8006)">
    <path
       style="fill:#fbf230;fill-opacity:1;stroke:none;stroke-width:1.33333337;stroke-opacity:1"
       d="m 203.42071,580.90213 c -0.35194,-0.91713 -0.4831,-26.56713 -0.29149,-57 l 0.3484,-55.33249 20.49529,-0.36894 c 30.91082,-0.55642 42.16513,3.34874 49.17138,17.06209 5.86464,11.47884 2.46753,27.50981 -7.14903,33.73644 -2.46655,1.59706 -4.49205,3.33833 -4.50113,3.8695 -0.009,0.53118 1.69442,1.85052 3.78557,2.9319 17.84036,9.22561 19.06,38.36102 2.09251,49.98733 -8.09103,5.54405 -15.41788,6.78168 -40.14835,6.78168 -17.30689,0 -23.32505,-0.4216 -23.80315,-1.66751 z m 50.71931,-13.82396 c 13.48828,-6.9998 13.3698,-28.06702 -0.1916,-34.06586 -4.73113,-2.09282 -8.32424,-2.46547 -20.76268,-2.15339 l -15.04145,0.37739 -0.37307,17.8155 c -0.26759,12.7779 0.0987,18.38394 1.29529,19.82576 2.56902,3.09547 28.17248,1.78192 35.07351,-1.7994 z m -2.24299,-51.714 c 5.95859,-3.0813 8.55495,-7.70369 8.55495,-15.23066 0,-14.85438 -6.48639,-19.17487 -27.93836,-18.60935 l -14.36933,0.37881 -0.37555,16.47919 c -0.26879,11.79475 0.10333,17.05621 1.30909,18.50904 2.31199,2.78577 26.67088,1.65239 32.8192,-1.52703 z M 196.75405,292.90213 c -0.35195,-0.91714 -0.48311,-26.56714 -0.2915,-57.00001 l 0.3484,-55.33249 13.88428,-0.38239 c 8.6932,-0.23941 14.42607,0.15762 15.33334,1.06191 0.85796,0.85513 1.721,9.98533 2.11572,22.38239 l 0.66666,20.93809 h 9.33334 9.33333 l 0.36936,-20.57345 c 0.22263,-12.40062 0.94956,-21.27258 1.82992,-22.33334 2.09073,-2.51917 26.88764,-2.46665 28.98574,0.0615 1.08548,1.30792 1.41336,17.3744 1.16325,57 l -0.34827,55.17866 h -15.33333 -15.33334 l -0.36557,-22.33334 -0.36557,-22.33333 h -9.96776 -9.96776 v 20.55761 c 0,11.3067 -0.36419,21.5067 -0.80932,22.66667 -0.66966,1.74508 -3.323,2.10905 -15.37518,2.10905 -10.42664,0 -14.7477,-0.47386 -15.20574,-1.6675 z m 258.05823,-0.66583 c 0.003,-3.56157 31.80756,-108.49648 33.50498,-110.54174 1.97362,-2.37806 20.27452,-2.48112 22.18585,-0.12493 1.54872,1.9092 33.64119,107.70078 33.64119,110.89692 0,1.69538 -1.64847,2.10308 -8.50342,2.10308 -5.23036,0 -8.99666,-0.64152 -9.78492,-1.66666 -0.70482,-0.91667 -2.67508,-6.76667 -4.37833,-13 -1.70325,-6.23334 -3.67351,-12.08334 -4.37833,-13 -0.9019,-1.17297 -6.12191,-1.66667 -17.62167,-1.66667 -11.46173,0 -16.74404,0.49758 -17.69296,1.66667 -0.74404,0.91666 -2.68444,6.46666 -4.31199,12.33333 -4.35571,15.70053 -4.01943,15.33333 -14.04196,15.33333 -7.32091,0 -8.61956,-0.3516 -8.61844,-2.33333 z m 56.49916,-44.06444 c 0.36183,-0.58544 -2.00014,-11.23544 -5.24882,-23.66667 -3.24868,-12.43123 -5.90931,-22.78764 -5.91251,-23.01425 -0.003,-0.22662 -0.50421,-0.104 -1.11336,0.27248 -0.60915,0.37646 -1.86961,4.16188 -2.80103,8.41202 -0.93142,4.25014 -3.43302,13.98158 -5.55913,21.62543 -2.12609,7.64384 -3.86563,14.69384 -3.86563,15.66667 0,1.33757 2.90616,1.76876 11.92131,1.76876 6.55672,0 12.21735,-0.479 12.57917,-1.06444 z"
       id="path1319"
       inkscape:connector-curvature="0" />
  </g>
</svg>
